<?xml version="1.0" encoding="UTF-8" standalone="no"?>
<!-- Created with Inkscape (http://www.inkscape.org/) -->

<svg
   width="196"
   height="576"
   viewBox="0 0 51.858332 152.4"
   version="1.1"
   id="svg63"
   inkscape:version="1.1.1 (3bf5ae0d25, 2021-09-20)"
   sodipodi:docname="Flow_Engine_banner.svg"
   xmlns:inkscape="http://www.inkscape.org/namespaces/inkscape"
   xmlns:sodipodi="http://sodipodi.sourceforge.net/DTD/sodipodi-0.dtd"
   xmlns="http://www.w3.org/2000/svg"
   xmlns:svg="http://www.w3.org/2000/svg">
  <sodipodi:namedview
     id="namedview65"
     pagecolor="#ffffff"
     bordercolor="#666666"
     borderopacity="1.0"
     inkscape:pageshadow="2"
     inkscape:pageopacity="0.0"
     inkscape:pagecheckerboard="0"
     inkscape:document-units="px"
     showgrid="false"
     units="px"
     inkscape:zoom="1.3955003"
     inkscape:cx="98.530971"
     inkscape:cy="290.2185"
     inkscape:window-width="1920"
     inkscape:window-height="997"
     inkscape:window-x="0"
     inkscape:window-y="28"
     inkscape:window-maximized="1"
     inkscape:current-layer="layer1" />
  <defs
     id="defs60" />
  <g
     inkscape:label="Layer 1"
     inkscape:groupmode="layer"
     id="layer1">
    <g
       id="g26181"
       inkscape:export-filename="/home/stuart/tmp/Flow_Engine-banner.png"
       inkscape:export-xdpi="96"
       inkscape:export-ydpi="96"
       transform="translate(-33.866667)">
      <rect
         style="fill:#06296f;stroke:#000000;stroke-width:0.0784632;stroke-linecap:round"
         id="rect145"
         width="51.779869"
         height="152.32153"
         x="33.905899"
         y="0.039231598" />
      <g
         aria-label="FLOW
ENGINE"
         id="text17399"
         style="font-size:12.7426px;line-height:54.2%;font-family:Vipnagorgialla;-inkscape-font-specification:Vipnagorgialla;text-align:center;letter-spacing:0px;word-spacing:0px;text-anchor:middle;stroke:#ffffff;stroke-width:0.661458">
        <path
           d="m 49.366035,133.5636 v 1.60556 h -5.148011 v 0.73908 h 2.331896 v 1.60556 h -2.331896 v 2.35738 H 41.79693 v -6.30758 z"
           id="path11" />
        <path
           d="m 55.469727,138.26562 v 1.60556 h -5.6832 v -6.33307 h 2.421094 v 4.72751 z"
           id="path13" />
        <path
           d="m 63.867084,138.36756 q 0,0.6881 -0.305822,1.0194 -0.29308,0.33131 -0.968438,0.43325 -0.39502,0.051 -1.146834,0.051 h -3.198392 q -0.739071,0 -1.070379,-0.0382 -0.713585,-0.10194 -1.03215,-0.43325 -0.305823,-0.33131 -0.305823,-1.03215 v -3.30034 q 0,-0.71358 0.305823,-1.03215 0.305822,-0.31856 1.03215,-0.4205 0.420506,-0.051 1.070379,-0.051 h 3.198392 q 0.751814,0 1.146834,0.051 0.675358,0.10194 0.968438,0.43325 0.305822,0.3313 0.305822,1.0194 z m -2.395608,-0.52245 v -2.25544 q 0,-0.28034 -0.229367,-0.36954 -0.140169,-0.051 -0.471477,-0.051 h -1.822191 q -0.318565,0 -0.471477,0.051 -0.229366,0.0892 -0.229366,0.36954 v 2.25544 q 0,0.28034 0.229366,0.36954 0.127426,0.051 0.471477,0.051 h 1.822191 q 0.331308,0 0.471477,-0.051 0.229367,-0.0892 0.229367,-0.36954 z"
           id="path15" />
        <path
           d="m 77.947643,133.57634 -2.574005,6.29484 h -3.045482 l -1.223289,-2.99451 -1.22329,2.99451 h -3.032739 l -2.586748,-6.29484 h 2.650461 l 1.439914,3.32582 1.465399,-3.32582 h 2.586748 l 1.452656,3.32582 1.439914,-3.32582 z"
           id="path17" />
        <path
           d="m 45.536897,140.47009 v 1.60556 h -5.148011 v 0.73907 h 2.331896 v 1.60557 h -2.331896 v 0.75182 h 5.148011 v 1.60556 h -7.569105 v -6.30758 z"
           id="path19" />
        <path
           d="m 53.75586,146.77767 h -2.561262 l -2.484807,-2.77788 v 2.77788 h -2.408352 v -6.30758 h 2.268183 l 2.765144,3.27484 v -3.2621 l 2.421094,-0.0127 z"
           id="path21" />
        <path
           d="m 61.770935,146.77767 h -5.135268 q -0.751814,0 -1.185062,-0.0637 -0.675358,-0.10194 -0.955695,-0.43325 -0.280337,-0.33131 -0.280337,-1.00666 v -3.30034 q 0,-0.66261 0.280337,-0.99392 0.280337,-0.33131 0.955695,-0.44599 0.407763,-0.0637 1.185062,-0.0637 h 5.135268 v 1.60556 h -4.447168 q -0.369535,0 -0.484218,0.051 -0.229367,0.0892 -0.229367,0.38228 v 2.2427 q 0,0.28034 0.229367,0.36954 0.127426,0.051 0.484218,0.051 h 2.038816 v -0.75182 h -2.038816 v -1.60557 h 4.447168 z"
           id="path23" />
        <path
           d="m 64.599784,146.77767 h -2.408352 v -6.30758 h 2.408352 z"
           id="path25" />
        <path
           d="m 73.277495,146.77767 h -2.561263 l -2.484807,-2.77788 v 2.77788 h -2.408351 v -6.30758 h 2.268183 l 2.765144,3.27484 v -3.2621 l 2.421094,-0.0127 z"
           id="path27" />
        <path
           d="m 81.623876,140.47009 v 1.60556 h -5.148011 v 0.73907 h 2.331896 v 1.60557 h -2.331896 v 0.75182 h 5.148011 v 1.60556 h -7.569105 v -6.30758 z"
           id="path29" />
      </g>
    </g>
  </g>
</svg>
