<?xml version="1.0" encoding="UTF-8" standalone="no"?>
<svg
   xmlns:dc="http://purl.org/dc/elements/1.1/"
   xmlns:cc="http://creativecommons.org/ns#"
   xmlns:rdf="http://www.w3.org/1999/02/22-rdf-syntax-ns#"
   xmlns:svg="http://www.w3.org/2000/svg"
   xmlns="http://www.w3.org/2000/svg"
   xmlns:sodipodi="http://sodipodi.sourceforge.net/DTD/sodipodi-0.dtd"
   xmlns:inkscape="http://www.inkscape.org/namespaces/inkscape"
   version="1.1"
   id="svg2"
   width="1240"
   height="985"
   viewBox="0 0 1240 985"
   sodipodi:docname="Godot_the_Hedgehog.svg"
   inkscape:version="1.0.2 (e86c870879, 2021-01-15)">
  <metadata
     id="metadata8">
    <rdf:RDF>
      <cc:Work
         rdf:about="">
        <dc:format>image/svg+xml</dc:format>
        <dc:type
           rdf:resource="http://purl.org/dc/dcmitype/StillImage" />
        <dc:title />
      </cc:Work>
    </rdf:RDF>
  </metadata>
  <defs
     id="defs6" />
  <sodipodi:namedview
     pagecolor="#ffffff"
     bordercolor="#666666"
     borderopacity="1"
     objecttolerance="10"
     gridtolerance="10"
     guidetolerance="10"
     inkscape:pageopacity="0"
     inkscape:pageshadow="2"
     inkscape:window-width="1920"
     inkscape:window-height="997"
     id="namedview4"
     showgrid="false"
     inkscape:zoom="0.84884488"
     inkscape:cx="621.54345"
     inkscape:cy="492.16979"
     inkscape:window-x="0"
     inkscape:window-y="28"
     inkscape:window-maximized="1"
     inkscape:current-layer="g10"
     inkscape:document-rotation="0" />
  <g
     inkscape:groupmode="layer"
     inkscape:label="Image"
     id="g10">
    <g
       id="Godot_the_Hedgehog"
       transform="translate(-440.18265,-156.49184)">
      <path
         id="path14"
         style="fill:#478cbf;fill-opacity:1"
         d="m 1211.3457,158.35547 c -32.9287,-0.0322 -65.7034,2.68826 -97.3457,8.14453 -4.675,0.80614 -11.2,1.93147 -14.5,2.5 -3.3,0.56853 -8.7,1.6528 -12,2.41016 -3.3,0.75735 -9.375,2.1291 -13.5,3.04687 -11.2331,2.49927 -24.1171,5.58512 -27.5,6.58789 -1.65,0.48911 -5.475,1.55639 -8.5,2.3711 -8.4616,2.27893 -20.0657,5.6204 -24.5,7.05468 -2.2,0.71159 -7.15,2.29474 -11,3.51758 -3.85,1.22285 -8.41727,2.85021 -10.15039,3.61719 -1.73312,0.76698 -3.7814,1.39453 -4.55078,1.39453 -0.76938,0 -1.82711,0.3792 -2.34961,0.84375 -0.5225,0.46455 -3.87422,1.863 -7.44922,3.10547 -3.575,1.24246 -7.85,2.87225 -9.5,3.62305 -1.65,0.75081 -6.375,2.79122 -10.5,4.5332 -14.56846,6.15224 -50.3602,23.44576 -53.5,25.84961 -0.55,0.42108 -4.6,2.68915 -9,5.04101 -4.4,2.35186 -8.675,4.81956 -9.5,5.48438 -0.825,0.66482 -5.55,3.59979 -10.5,6.52148 -11.0062,6.4963 -28.87858,18.22338 -29.33398,19.24805 -0.18334,0.4125 -0.74996,0.75 -1.25977,0.75 -1.74024,0 -25.17098,16.9321 -47.40625,34.25781 -8.08223,6.29768 -34.08637,28.32712 -42,35.58008 -3.3,3.0245 -13.875,13.19303 -23.5,22.59766 -15.96743,15.60186 -24.61022,23.16278 -50.61719,44.27734 -4.88576,3.96666 -11.13281,9.33908 -13.88281,11.93945 -16.97504,15.68582 -37.6936,26.38233 -53,42.98633 l -8,7.03906 -4.22656,-2.69726 c -3.98229,-2.57768 -8.42052,-5.39845 -13.31836,-8.46485 C 576.13567,453.40826 557.23631,442.51109 540,433.28711 l -15.5,-8.29492 -7,7.38086 C 509.48687,440.82307 499.36363,452 499.72266,452 c 0.1334,0 -5.03739,6.49351 -11.49024,14.42969 -16.97256,20.87413 -31.35989,41.05942 -43.71875,61.33789 -3.3144,5.43828 -3.66171,6.56244 -2.63476,8.5 2.38716,4.50386 4.63668,8.2451 5.25195,8.73242 0.34721,0.275 4.17221,5.91431 8.5,12.53125 4.3278,6.61694 11.91914,17.81269 16.86914,24.87891 5.75103,10.16868 11.40763,16.32151 17.64062,24.13672 L 496.5,614.5 497,738 l 0.5,123.5 7.5,0.69727 c 7.05905,0.65621 40.89043,3.90928 112.5,10.81835 17.05,1.64504 32.64856,3.44586 34.66406,4.00196 4.43031,1.22237 10.4818,7.01238 11.24219,10.75781 0.94257,4.64274 4.7968,63.34197 4.28711,65.29102 -1.14011,4.3598 0.0636,4.58165 39.80664,7.34375 20.9,1.45252 50.30369,3.56233 65.3418,4.68945 15.03812,1.12712 27.51333,1.87924 27.72265,1.66992 0.20931,-0.20932 2.4518,-14.5016 4.98243,-31.75976 3.0212,-20.60382 5.22678,-32.60478 6.42382,-34.95118 1.04087,-2.04029 3.53473,-4.53622 5.8125,-5.8164 L 821.77148,892 h 83.27735 83.27539 l 4.20703,2.4668 c 2.39138,1.40144 4.87258,3.88354 5.74805,5.75 1.2221,2.60547 7.7385,42.83542 10.0586,62.09961 0.2528,2.09858 0.6744,4.02796 0.9355,4.28906 0.4733,0.47328 129.3101,-8.39027 131.2461,-9.0293 0.6042,-0.19941 1.9598,-14.32976 3.3301,-34.70703 2.078,-30.9028 2.5318,-34.77224 4.4942,-38.35742 4.1507,-7.58438 4.87,-7.74604 54.6562,-12.39844 24.475,-2.28712 45.5306,-4.31539 46.791,-4.50586 2.1669,-0.32745 2.2578,-0.11137 1.6485,3.95117 -0.3543,2.36308 -0.1563,7.36661 0.4414,11.11914 0.5977,3.75254 1.3066,8.92564 1.5742,11.4961 l 0.4863,4.67383 -6.2207,0.63281 c -3.4213,0.34834 -20.8252,2.06996 -38.6758,3.82617 l -32.457,3.19336 -0.2559,3.5 c -0.1414,1.925 -1.2093,17.45 -2.373,34.5 -2.3201,33.99277 -3.0562,37.35397 -8.9375,40.82812 -1.6616,0.98116 -3.0271,1.42211 -3.0371,0.97852 -0.01,-0.4436 -0.3673,-0.25241 -0.7969,0.42383 -0.5503,0.86627 -17.4595,2.41918 -57.2344,5.25976 -31.0495,2.21745 -68.2706,4.89378 -82.7148,5.94727 -15.9811,1.16555 -27.41703,1.5848 -29.21096,1.07031 -4.49356,-1.28874 -9.45681,-5.53663 -10.76367,-9.21093 -1.0405,-2.92545 -9.09942,-55.56875 -9.57617,-62.55469 -0.1029,-1.50777 -0.6375,-3.07248 -1.1875,-3.47657 -0.55,-0.40408 -30.30585,-0.74198 -66.12305,-0.75 L 839.25586,923 l -0.59961,3.75 c -0.32956,2.0625 -2.41937,16.35 -4.64453,31.75 -4.15053,28.72512 -5.59117,34.23615 -9.8125,37.55664 -5.01527,3.94496 -6.75346,3.92938 -70.41016,-0.63672 C 720.07994,993.00196 683.275,990.37124 672,989.57227 c -13.05658,-0.92522 -21.81869,-2.00657 -24.13086,-2.97657 -4.5204,-1.89639 -8.60805,-6.64058 -9.36914,-10.875 -0.31838,-1.77131 -1.60659,-17.95359 -2.86328,-35.96093 -1.25669,-18.00735 -2.47662,-32.90938 -2.71094,-33.11524 -0.48891,-0.42953 -14.75347,-1.86596 -80.42578,-8.09961 -25.85,-2.45369 -48.9695,-4.70495 -51.37695,-5.00195 l -4.37696,-0.53906 0.51563,25.74804 c 0.53228,26.51009 1.52871,35.15434 5.87305,51.01953 4.59236,16.77095 16.86761,40.38832 27.39843,52.71482 5.40304,5.4821 4.67007,7.9855 12.5293,14.2325 28.51946,29.1535 68.75563,52.2772 121.4375,69.7871 18.6098,6.1854 31.94614,9.7984 58.94336,15.9687 30.8292,7.0461 78.22369,13.1462 128.05664,16.4824 v -0.01 c 21.00246,1.406 105.95439,0.4857 128,-1.3867 82.7383,-7.0272 145.1028,-20.682 199.4082,-43.6641 10.0676,-4.2313 15.8912,-6.4669 26.3711,-12.4395 11.1783,-6.0393 27.3297,-15.9463 32.8809,-20.1679 9.3154,-7.012 15.9359,-9.6512 26.4394,-22.7969 7.1439,-7.15 15.093,-15.9663 17.666,-19.5899 l 4.6797,-6.5878 11.2774,-0.2032 c 6.2027,-0.1122 20.9523,-0.6289 32.7773,-1.1484 27.7119,-1.2134 43.9864,-1.2117 50.9395,0.01 3.0581,0.5372 9.3855,1.4708 14.0605,2.0742 16.7571,2.1628 40.989,5.9155 43,6.6601 0.825,0.3055 2.9005,0.7264 4.6133,0.9356 3.9335,0.4804 30.6108,5.7737 39.8867,7.914 17.3909,4.0126 37.1288,8.9751 43.3066,10.8887 2.5809,0.7993 10.0934,3.0793 16.6934,5.0664 6.6,1.987 12.9,3.9943 14,4.459 1.1,0.4647 8.525,3.2023 16.5,6.084 17.5615,6.3455 35.2536,14.3264 34.2402,15.4453 -0.4071,0.4498 -0.157,0.4809 0.5547,0.07 0.7117,-0.4106 2.3834,-0.033 3.7149,0.8399 1.3315,0.8724 2.721,1.5859 3.0879,1.5859 0.3668,0 0.4315,-7.0875 0.1445,-15.75 -0.8594,-25.9431 -8.1575,-57.1486 -20.7559,-88.75 -4.7842,-12.00048 -19.9402,-42.66004 -26.6933,-54 -6.5652,-11.02455 -15.3014,-24.71928 -16.2676,-25.5 -0.3403,-0.275 -2.7068,-3.2 -5.2598,-6.5 -7.9968,-10.33667 -20.8729,-22.93276 -34.7695,-34.01562 C 1503.4753,841.68874 1481.7266,827 1480.1855,827 c -0.5608,0 -1.1681,-0.38115 -1.3515,-0.84766 -0.8086,-2.05765 -24.371,-14.10448 -45.334,-23.17773 -1.1,-0.47611 -4.113,-1.78989 -6.6953,-2.91992 -2.5824,-1.13003 -5.3037,-2.05469 -6.0488,-2.05469 -0.7452,0 -1.7842,-0.36069 -2.3067,-0.80078 -1.7638,-1.48557 -14.9254,-6.01733 -28.1992,-9.70899 -3.0522,-0.84887 -2.805,-1.47196 2.0605,-5.19335 4.2292,-3.23471 28.7954,-19.82731 36.1895,-24.44336 5.4947,-3.43031 28.7814,-15.13563 35.5,-17.84375 3.025,-1.21932 6.4,-2.60787 7.5,-3.08594 22.5376,-9.79499 64.8776,-18.63597 117.5,-24.53516 11.7947,-1.32224 24.4034,-1.7549 52.748,-1.8125 24.303,-0.0494 37.2493,-0.42655 37.25,-1.08398 0,-1.302 -6.6961,-22.36989 -7.9453,-24.99219 -0.524,-1.1 -2.7647,-6.34166 -4.9804,-11.64844 -25.6492,-61.43217 -86.9499,-132.70566 -138.5235,-161.06054 -13.7049,-7.53488 -34.1743,-17.37611 -44.0488,-21.17774 -5.5,-2.11747 -10.9,-4.23148 -12,-4.69726 -3.7435,-1.58513 -20.7053,-6.77218 -32.5,-9.93946 -7.2434,-1.9451 -16.7298,-3.97308 -23.4199,-5.0039 -3.8063,-0.58649 -7.2057,-1.24057 -7.5528,-1.45508 -0.3471,-0.21452 -5.5566,-0.90141 -11.5781,-1.52539 -6.0216,-0.62397 -12.0742,-1.32114 -13.4492,-1.55078 -1.375,-0.22965 -8.6875,-0.71797 -16.25,-1.08399 -7.5625,-0.36603 -13.75,-0.86396 -13.75,-1.10742 0,-1.15541 11.3602,-17.62472 17.0723,-24.75 7.905,-9.86085 28.2939,-30.21849 38.4355,-38.37695 C 1423.4648,389.09073 1452.4191,370 1455.7109,370 c 0.6177,0 1.2717,-0.3375 1.4551,-0.75 0.3481,-0.78338 4.8679,-3.09205 10.834,-5.53516 1.925,-0.78829 4.85,-1.99309 6.5,-2.67578 3.3374,-1.38086 19.5608,-7.34079 26.4414,-9.71484 5.1493,-1.77667 17.7235,-5.22477 32.5586,-8.92578 21.994,-5.487 48.9432,-10.21165 74,-12.97266 7.7,-0.84846 14.4417,-1.97929 14.9805,-2.51367 1.4044,-1.39299 -28.0828,-30.04994 -44.0098,-42.77149 -7.1338,-5.69799 -13.8707,-11.10175 -14.9707,-12.00781 -1.1,-0.90606 -5.825,-4.31508 -10.5,-7.57422 -4.675,-3.25915 -10.678,-7.4496 -13.3398,-9.3125 -7.3202,-5.12319 -33.8118,-20.78036 -45.6602,-26.98632 -5.775,-3.02483 -10.95,-5.83745 -11.5,-6.25196 -0.55,-0.41452 -7.75,-3.7607 -16,-7.43554 -8.25,-3.67483 -15.9,-7.08432 -17,-7.57618 -6.6136,-2.95723 -17.2509,-7.14909 -21.2949,-8.39062 -2.5877,-0.79439 -9.8801,-3.22626 -16.2051,-5.40625 -12.9175,-4.45219 -29.5889,-9.67871 -37.3418,-11.70508 -2.8372,-0.74155 -10.382,-2.71486 -16.7676,-4.38672 -19.7906,-5.18157 -49.0478,-10.90499 -69.8906,-13.67187 -25.3392,-3.36378 -51.0431,-5.05501 -76.6543,-5.08008 z"
         sodipodi:nodetypes="ssssssssssssssssssssssssscccccsccsssssscccccsssssssssscccccssssscsssssccsccsccssssssscccssssssssscccsccssccsccccccccsssssssssssssssssssssssssssssssssssssssssssssssssssssssssssssssssssss" />
      <rect
         style="fill:#ffffff;fill-opacity:1;stroke-width:8.01067;stroke-linecap:round"
         id="rect856"
         width="58.287708"
         height="135.05777"
         x="875.68268"
         y="678.74091"
         ry="34.318943" />
      <ellipse
         style="fill:#ffffff;fill-opacity:1;stroke-width:6.16084;stroke-linecap:round"
         id="path834-3"
         cx="1118.4104"
         cy="715.31116"
         rx="90.036682"
         ry="90.232193" />
      <ellipse
         style="fill:#ffffff;fill-opacity:1;stroke-width:6.16084;stroke-linecap:round"
         id="path834"
         cx="691.3244"
         cy="714.98956"
         rx="90.036682"
         ry="90.232193" />
      <circle
         style="fill:#000000;fill-opacity:1;stroke:none;stroke-width:6.51678;stroke-linecap:round"
         id="path37"
         cx="699.48199"
         cy="720.16498"
         r="60" />
      <circle
         style="fill:#000000;fill-opacity:1;stroke:none;stroke-width:6.51678;stroke-linecap:round"
         id="path37-3"
         cx="1109.307"
         cy="720.10498"
         r="60" />
    </g>
  </g>
</svg>
