<?xml version="1.0" encoding="UTF-8" standalone="no"?>
<!-- Created with Inkscape (http://www.inkscape.org/) -->
<svg xmlns:dc="http://purl.org/dc/elements/1.1/" xmlns:cc="http://creativecommons.org/ns#" xmlns:rdf="http://www.w3.org/1999/02/22-rdf-syntax-ns#" xmlns:svg="http://www.w3.org/2000/svg" xmlns="http://www.w3.org/2000/svg" xmlns:sodipodi="http://sodipodi.sourceforge.net/DTD/sodipodi-0.dtd" xmlns:inkscape="http://www.inkscape.org/namespaces/inkscape" width="360" height="42" viewBox="0 0 95.249996 11.1125" version="1.1" id="svg8" inkscape:version="0.92.3 (2405546, 2018-03-11)" sodipodi:docname="Game_Over.svg" inkscape:export-filename="/home/stuart/Data/Projects/Code/Godot/Projects/Godot_Sonic_Engine/Source/Assets/Graphics/2D/UI/Game_Over.svg.png" inkscape:export-xdpi="96" inkscape:export-ydpi="96">
  <defs id="defs2"/>
  <sodipodi:namedview id="base" pagecolor="#ffffff" bordercolor="#666666" borderopacity="1.0" inkscape:pageopacity="0.0" inkscape:pageshadow="2" inkscape:zoom="4.8294298" inkscape:cx="180.22781" inkscape:cy="20.670276" inkscape:document-units="px" inkscape:current-layer="layer1" showgrid="false" units="px" inkscape:window-width="1920" inkscape:window-height="996" inkscape:window-x="0" inkscape:window-y="28" inkscape:window-maximized="1" borderlayer="true"/>
  <metadata id="metadata5">
    <rdf:RDF>
      <cc:Work rdf:about="">
        <dc:format>image/svg+xml</dc:format>
        <dc:type rdf:resource="http://purl.org/dc/dcmitype/StillImage"/>
        <dc:title/>
      </cc:Work>
    </rdf:RDF>
  </metadata>
  <g inkscape:label="Layer 1" inkscape:groupmode="layer" id="layer1" transform="translate(0,-285.88748)">
    <g id="g46" transform="matrix(0.67433067,0,0,0.67433067,-0.36807917,96.876918)">
      <g id="g28">
        <path inkscape:connector-curvature="0" id="path9" style="font-style:normal;font-variant:normal;font-weight:normal;font-stretch:normal;font-size:18.6372509px;line-height:125%;font-family:NiseSegaSonic;-inkscape-font-specification:'NiseSegaSonic, Normal';font-variant-ligatures:normal;font-variant-caps:normal;font-variant-numeric:normal;font-feature-settings:normal;text-align:center;letter-spacing:0px;word-spacing:0px;writing-mode:lr-tb;text-anchor:middle;fill:#ffffff;fill-opacity:1;stroke:#000000;stroke-width:1.05833328;stroke-linecap:butt;stroke-linejoin:miter;stroke-miterlimit:4;stroke-dasharray:none;stroke-opacity:1" d="m 1.0750097,288.47836 q 0,-3.0726 2.2675549,-5.26476 2.267555,-2.21012 5.5490573,-2.28199 2.9496641,-0.12579 5.0144311,0.21562 l -1.843541,5.51632 q -0.184355,-0.23359 -0.368708,-0.44922 -0.774288,-0.89842 -2.0094597,-0.64686 -1.2351722,0.23359 -2.3412965,1.13202 -1.1245598,0.89842 -1.4379617,1.92262 -0.3134019,1.0242 0.3871435,1.85075 0.6821101,0.82655 1.8619761,0.86249 1.179866,0.018 2.5072153,-0.91639 v -2.58747 h 5.161914 v 7.40302 q -1.36422,0.34139 -2.710005,0.50312 -1.327349,0.16171 -4.2217081,0.14374 -3.2815023,0 -5.5490573,-2.15621 -2.2675549,-2.15622 -2.2675549,-5.2468 z"/>
        <path inkscape:connector-curvature="0" id="path11" style="font-style:normal;font-variant:normal;font-weight:normal;font-stretch:normal;font-size:18.6372509px;line-height:125%;font-family:NiseSegaSonic;-inkscape-font-specification:'NiseSegaSonic, Normal';font-variant-ligatures:normal;font-variant-caps:normal;font-variant-numeric:normal;font-feature-settings:normal;text-align:center;letter-spacing:0px;word-spacing:0px;writing-mode:lr-tb;text-anchor:middle;fill:#ffffff;fill-opacity:1;stroke:#000000;stroke-width:1.05833328;stroke-linecap:butt;stroke-linejoin:miter;stroke-miterlimit:4;stroke-dasharray:none;stroke-opacity:1" d="m 16.413268,295.88137 5.309397,-14.37477 h 7.079196 l 5.309397,14.37477 h -5.89933 l -0.589933,-2.29996 h -4.719464 l -0.589933,2.29996 z m 10.02886,-6.3249 -1.179865,-3.44995 -1.179866,3.44995 z"/>
        <path inkscape:connector-curvature="0" id="path13" style="font-style:normal;font-variant:normal;font-weight:normal;font-stretch:normal;font-size:18.6372509px;line-height:125%;font-family:NiseSegaSonic;-inkscape-font-specification:'NiseSegaSonic, Normal';font-variant-ligatures:normal;font-variant-caps:normal;font-variant-numeric:normal;font-feature-settings:normal;text-align:center;letter-spacing:0px;word-spacing:0px;writing-mode:lr-tb;text-anchor:middle;fill:#ffffff;fill-opacity:1;stroke:#000000;stroke-width:1.05833328;stroke-linecap:butt;stroke-linejoin:miter;stroke-miterlimit:4;stroke-dasharray:none;stroke-opacity:1" d="m 33.521324,295.88137 3.539598,-14.37477 h 5.309397 l 1.769799,7.18739 1.769799,-7.18739 h 5.309398 l 3.539597,14.37477 h -4.424498 l -1.769799,-7.18738 -1.769798,7.18738 H 41.48542 l -1.769799,-7.18738 -1.7698,7.18738 z"/>
        <path inkscape:connector-curvature="0" id="path15" style="font-style:normal;font-variant:normal;font-weight:normal;font-stretch:normal;font-size:18.6372509px;line-height:125%;font-family:NiseSegaSonic;-inkscape-font-specification:'NiseSegaSonic, Normal';font-variant-ligatures:normal;font-variant-caps:normal;font-variant-numeric:normal;font-feature-settings:normal;text-align:center;letter-spacing:0px;word-spacing:0px;writing-mode:lr-tb;text-anchor:middle;fill:#ffffff;fill-opacity:1;stroke:#000000;stroke-width:1.0582067;stroke-linecap:butt;stroke-linejoin:miter;stroke-miterlimit:4;stroke-dasharray:none;stroke-opacity:1" d="M 54.758914,295.88137 V 281.5066 h 12.388593 v 3.73744 h -6.489263 v 1.43748 h 6.489263 v 4.02494 h -6.489263 v 1.43747 h 6.489263 v 3.73744 z"/>
      </g>
      <g id="g34">
        <path inkscape:connector-curvature="0" id="path17" style="font-style:normal;font-variant:normal;font-weight:normal;font-stretch:normal;font-size:18.6372509px;line-height:125%;font-family:NiseSegaSonic;-inkscape-font-specification:'NiseSegaSonic, Normal';font-variant-ligatures:normal;font-variant-caps:normal;font-variant-numeric:normal;font-feature-settings:normal;text-align:center;letter-spacing:0px;word-spacing:0px;writing-mode:lr-tb;text-anchor:middle;fill:#ffffff;fill-opacity:1;stroke:#000000;stroke-width:1.05833328;stroke-linecap:butt;stroke-linejoin:miter;stroke-miterlimit:4;stroke-dasharray:none;stroke-opacity:1" d="m 77.766296,288.47836 q 0,-3.18042 2.267555,-5.3546 2.267556,-2.19215 5.844024,-2.19215 3.61334,0 5.880895,2.01246 2.267555,2.01247 2.378167,5.53429 0,3.19839 -2.433473,5.44445 -2.433474,2.24606 -5.825589,2.24606 -3.410549,0 -5.770282,-2.24606 -2.341297,-2.24606 -2.341297,-5.44445 z m 6.415522,-2.12027 q -1.198301,0.80858 -1.659186,1.97653 -0.460886,1.16795 0.276531,2.22808 0.774287,1.02421 2.046329,0.98828 1.290479,-0.0359 2.470345,-0.88047 1.198301,-0.77263 1.659187,-1.94058 0.460885,-1.18592 -0.258096,-2.24607 -0.774288,-1.04216 -2.064765,-0.98826 -1.272044,0.0539 -2.470345,0.86249 z"/>
        <path inkscape:connector-curvature="0" id="path19" style="font-style:normal;font-variant:normal;font-weight:normal;font-stretch:normal;font-size:18.6372509px;line-height:125%;font-family:NiseSegaSonic;-inkscape-font-specification:'NiseSegaSonic, Normal';font-variant-ligatures:normal;font-variant-caps:normal;font-variant-numeric:normal;font-feature-settings:normal;text-align:center;letter-spacing:0px;word-spacing:0px;writing-mode:lr-tb;text-anchor:middle;fill:#ffffff;fill-opacity:1;stroke:#000000;stroke-width:1.05833328;stroke-linecap:butt;stroke-linejoin:miter;stroke-miterlimit:4;stroke-dasharray:none;stroke-opacity:1" d="m 94.726872,281.5066 h 5.899328 l 2.94966,9.77485 2.94968,-9.77485 h 5.89933 l -5.3094,14.37477 h -7.0792 z"/>
        <path inkscape:connector-curvature="0" id="path21" style="font-style:normal;font-variant:normal;font-weight:normal;font-stretch:normal;font-size:18.6372509px;line-height:125%;font-family:NiseSegaSonic;-inkscape-font-specification:'NiseSegaSonic, Normal';font-variant-ligatures:normal;font-variant-caps:normal;font-variant-numeric:normal;font-feature-settings:normal;text-align:center;letter-spacing:0px;word-spacing:0px;writing-mode:lr-tb;text-anchor:middle;fill:#ffffff;fill-opacity:1;stroke:#000000;stroke-width:1.05833328;stroke-linecap:butt;stroke-linejoin:miter;stroke-miterlimit:4;stroke-dasharray:none;stroke-opacity:1" d="M 112.42486,295.88137 V 281.5066 h 12.38859 v 3.73744 h -6.48926 v 1.43748 h 6.48926 v 4.02494 h -6.48926 v 1.43747 h 6.48926 v 3.73744 z"/>
        <path inkscape:connector-curvature="0" id="path23" style="font-style:normal;font-variant:normal;font-weight:normal;font-stretch:normal;font-size:18.6372509px;line-height:125%;font-family:NiseSegaSonic;-inkscape-font-specification:'NiseSegaSonic, Normal';font-variant-ligatures:normal;font-variant-caps:normal;font-variant-numeric:normal;font-feature-settings:normal;text-align:center;letter-spacing:0px;word-spacing:0px;writing-mode:lr-tb;text-anchor:middle;fill:#ffffff;fill-opacity:1;stroke:#000000;stroke-width:1.05833328;stroke-linecap:butt;stroke-linejoin:miter;stroke-miterlimit:4;stroke-dasharray:none;stroke-opacity:1" d="m 125.99333,281.5066 h 10.32382 q 1.80668,0 3.11559,1.3656 1.30891,1.34764 1.30891,3.23432 0,1.90466 -1.30891,3.2523 -1.10613,1.14998 -2.58097,1.31169 l 3.88988,5.21086 h -5.3094 l -3.853,-5.17491 h -0.27653 v 5.17491 h -5.30939 z m 5.30939,3.44994 v 2.29997 h 2.94966 q 0.47932,0 0.8296,-0.32344 0.35027,-0.3414 0.35027,-0.82655 0,-0.46718 -0.35027,-0.80858 -0.35028,-0.3414 -0.8296,-0.3414 z"/>
      </g>
    </g>
  </g>
</svg>