<?xml version="1.0" encoding="UTF-8" standalone="no"?>
<svg
   xmlns:dc="http://purl.org/dc/elements/1.1/"
   xmlns:cc="http://creativecommons.org/ns#"
   xmlns:rdf="http://www.w3.org/1999/02/22-rdf-syntax-ns#"
   xmlns:svg="http://www.w3.org/2000/svg"
   xmlns="http://www.w3.org/2000/svg"
   xmlns:sodipodi="http://sodipodi.sourceforge.net/DTD/sodipodi-0.dtd"
   xmlns:inkscape="http://www.inkscape.org/namespaces/inkscape"
   width="256"
   height="24"
   viewBox="0 0 67.733332 6.3500002"
   version="1.1"
   id="svg30"
   inkscape:version="1.0.2 (e86c870879, 2021-01-15)"
   sodipodi:docname="Rings.svg"
   inkscape:export-filename="/home/stuart/tmp/Rings.png"
   inkscape:export-xdpi="96"
   inkscape:export-ydpi="96">
  <title
     id="title19">Rings</title>
  <defs
     id="defs24" />
  <sodipodi:namedview
     id="base"
     pagecolor="#ffffff"
     bordercolor="#666666"
     borderopacity="1.0"
     inkscape:pageopacity="0.0"
     inkscape:pageshadow="2"
     inkscape:zoom="6.8085618"
     inkscape:cx="128.44122"
     inkscape:cy="11.89644"
     inkscape:document-units="px"
     inkscape:current-layer="layer1"
     showgrid="false"
     units="px"
     borderlayer="true"
     inkscape:window-width="1920"
     inkscape:window-height="997"
     inkscape:window-x="0"
     inkscape:window-y="28"
     inkscape:window-maximized="1"
     inkscape:document-rotation="0" />
  <metadata
     id="metadata27">
    <rdf:RDF>
      <cc:Work
         rdf:about="">
        <dc:format>image/svg+xml</dc:format>
        <dc:type
           rdf:resource="http://purl.org/dc/dcmitype/StillImage" />
        <dc:title>Rings</dc:title>
      </cc:Work>
    </rdf:RDF>
  </metadata>
  <g
     inkscape:label="Layer 1"
     inkscape:groupmode="layer"
     id="layer1"
     transform="translate(0,-290.64998)">
    <g
       transform="translate(-0.12443056)"
       aria-label="RINGS"
       style="font-style:normal;font-variant:normal;font-weight:normal;font-stretch:normal;font-size:11.95964146px;line-height:125%;font-family:Vipnagorgialla;-inkscape-font-specification:'Vipnagorgialla, Normal';font-variant-ligatures:normal;font-variant-caps:normal;font-variant-numeric:normal;font-feature-settings:normal;text-align:center;letter-spacing:0px;word-spacing:0px;writing-mode:lr-tb;text-anchor:middle;fill:#b9c400;fill-opacity:1;stroke:#610100;stroke-width:0.28030407px;stroke-linecap:butt;stroke-linejoin:miter;stroke-opacity:1"
       id="text12">
      <path
         inkscape:connector-curvature="0"
         d="M 7.35665,296.79697 H 5.1082374 v -1.51887 q 0,-0.40663 -0.6577803,-0.40663 H 2.5249548 v 1.9255 H 0.2645826 v -5.92002 h 4.8197355 q 0.7414978,0 1.1600852,0.0718 0.6099417,0.10763 0.8610942,0.41858 0.2511525,0.31095 0.2511525,0.92089 v 1.17205 q 0,0.43055 -0.4544664,0.66974 0.4544664,0.17939 0.4544664,0.64582 z m -2.2484126,-4.11412 q 0,-0.26311 -0.2033139,-0.29899 H 2.5249548 v 0.98069 h 1.9255023 q 0.5262242,0 0.5860224,-0.0718 0.071758,-0.0718 0.071758,-0.60994 z"
         style="font-style:normal;font-variant:normal;font-weight:normal;font-stretch:normal;font-size:11.95964146px;font-family:Vipnagorgialla;-inkscape-font-specification:'Vipnagorgialla, Normal';font-variant-ligatures:normal;font-variant-caps:normal;font-variant-numeric:normal;font-feature-settings:normal;text-align:center;writing-mode:lr-tb;text-anchor:middle;fill:#b9c400;fill-opacity:1;stroke:#610100;stroke-width:0.28030407px;stroke-opacity:1"
         id="path78" />
      <path
         inkscape:connector-curvature="0"
         d="M 10.409909,296.79697 H 8.149537 v -5.92002 h 2.260372 z"
         style="font-style:normal;font-variant:normal;font-weight:normal;font-stretch:normal;font-size:11.95964146px;font-family:Vipnagorgialla;-inkscape-font-specification:'Vipnagorgialla, Normal';font-variant-ligatures:normal;font-variant-caps:normal;font-variant-numeric:normal;font-feature-settings:normal;text-align:center;writing-mode:lr-tb;text-anchor:middle;fill:#b9c400;fill-opacity:1;stroke:#610100;stroke-width:0.28030407px;stroke-opacity:1"
         id="path80" />
      <path
         inkscape:connector-curvature="0"
         d="m 18.564143,296.79697 h -2.403888 l -2.33213,-2.6072 v 2.6072 h -2.260373 v -5.92002 h 2.128817 l 2.595242,3.07363 v -3.06167 l 2.272332,-0.012 z"
         style="font-style:normal;font-variant:normal;font-weight:normal;font-stretch:normal;font-size:11.95964146px;font-family:Vipnagorgialla;-inkscape-font-specification:'Vipnagorgialla, Normal';font-variant-ligatures:normal;font-variant-caps:normal;font-variant-numeric:normal;font-feature-settings:normal;text-align:center;writing-mode:lr-tb;text-anchor:middle;fill:#b9c400;fill-opacity:1;stroke:#610100;stroke-width:0.28030407px;stroke-opacity:1"
         id="path82" />
      <path
         inkscape:connector-curvature="0"
         d="m 26.083018,296.79697 h -4.819735 q -0.705619,0 -1.112247,-0.0598 -0.633861,-0.0957 -0.896973,-0.40663 -0.263112,-0.31095 -0.263112,-0.94481 v -3.09755 q 0,-0.6219 0.263112,-0.93285 0.263112,-0.31095 0.896973,-0.41858 0.382709,-0.0598 1.112247,-0.0598 h 4.819735 v 1.50691 h -4.173914 q -0.34683,0 -0.454467,0.0478 -0.215273,0.0837 -0.215273,0.35879 v 2.1049 q 0,0.26311 0.215273,0.34683 0.119597,0.0478 0.454467,0.0478 h 1.913542 v -0.70561 h -1.913542 v -1.50692 h 4.173914 z"
         style="font-style:normal;font-variant:normal;font-weight:normal;font-stretch:normal;font-size:11.95964146px;font-family:Vipnagorgialla;-inkscape-font-specification:'Vipnagorgialla, Normal';font-variant-ligatures:normal;font-variant-caps:normal;font-variant-numeric:normal;font-feature-settings:normal;text-align:center;writing-mode:lr-tb;text-anchor:middle;fill:#b9c400;fill-opacity:1;stroke:#610100;stroke-width:0.28030407px;stroke-opacity:1"
         id="path84" />
      <path
         inkscape:connector-curvature="0"
         d="m 33.602084,295.38573 q 0,0.64582 -0.275072,0.95677 -0.275072,0.31095 -0.908933,0.40663 -0.370748,0.0478 -1.088327,0.0478 H 26.40238 v -1.50692 h 4.6523 q 0.298991,-0.012 0.298991,-0.28703 0,-0.26311 -0.03588,-0.32291 -0.04784,-0.10763 -0.275071,-0.10763 h -2.463686 q -0.777377,0 -1.375359,-0.2392 -0.801296,-0.32291 -0.801296,-0.99265 v -1.0644 q 0,-0.65778 0.263112,-0.95678 0.275072,-0.31095 0.920892,-0.40662 0.442507,-0.0598 1.088328,-0.0598 h 4.161955 v 1.51887 h -3.886884 q -0.287031,0 -0.287031,0.27507 0,0.35879 0.131556,0.41859 0.03588,0.012 0.526224,0.012 h 2.34409 q 0.777377,0 1.303601,0.31095 0.633861,0.37075 0.633861,1.10029 z"
         style="font-style:normal;font-variant:normal;font-weight:normal;font-stretch:normal;font-size:11.95964146px;font-family:Vipnagorgialla;-inkscape-font-specification:'Vipnagorgialla, Normal';font-variant-ligatures:normal;font-variant-caps:normal;font-variant-numeric:normal;font-feature-settings:normal;text-align:center;writing-mode:lr-tb;text-anchor:middle;fill:#b9c400;fill-opacity:1;stroke:#610100;stroke-width:0.28030407px;stroke-opacity:1"
         id="path86" />
    </g>
    <g
       transform="translate(33.991098)"
       aria-label="RINGS"
       style="font-style:normal;font-variant:normal;font-weight:normal;font-stretch:normal;font-size:11.95964146px;line-height:125%;font-family:Vipnagorgialla;-inkscape-font-specification:'Vipnagorgialla, Normal';font-variant-ligatures:normal;font-variant-caps:normal;font-variant-numeric:normal;font-feature-settings:normal;text-align:center;letter-spacing:0px;word-spacing:0px;writing-mode:lr-tb;text-anchor:middle;fill:#610000;fill-opacity:1;stroke:#b9c400;stroke-width:0.28030407px;stroke-linecap:butt;stroke-linejoin:miter;stroke-opacity:1"
       id="text12-3">
      <path
         inkscape:connector-curvature="0"
         d="M 7.35665,296.79697 H 5.1082374 v -1.51887 q 0,-0.40663 -0.6577803,-0.40663 H 2.5249548 v 1.9255 H 0.2645826 v -5.92002 h 4.8197355 q 0.7414978,0 1.1600852,0.0718 0.6099417,0.10763 0.8610942,0.41858 0.2511525,0.31095 0.2511525,0.92089 v 1.17205 q 0,0.43055 -0.4544664,0.66974 0.4544664,0.17939 0.4544664,0.64582 z m -2.2484126,-4.11412 q 0,-0.26311 -0.2033139,-0.29899 H 2.5249548 v 0.98069 h 1.9255023 q 0.5262242,0 0.5860224,-0.0718 0.071758,-0.0718 0.071758,-0.60994 z"
         style="font-style:normal;font-variant:normal;font-weight:normal;font-stretch:normal;font-size:11.95964146px;font-family:Vipnagorgialla;-inkscape-font-specification:'Vipnagorgialla, Normal';font-variant-ligatures:normal;font-variant-caps:normal;font-variant-numeric:normal;font-feature-settings:normal;text-align:center;writing-mode:lr-tb;text-anchor:middle;fill:#610000;fill-opacity:1;stroke:#b9c400;stroke-width:0.28030407px;stroke-opacity:1"
         id="path67" />
      <path
         inkscape:connector-curvature="0"
         d="M 10.409909,296.79697 H 8.149537 v -5.92002 h 2.260372 z"
         style="font-style:normal;font-variant:normal;font-weight:normal;font-stretch:normal;font-size:11.95964146px;font-family:Vipnagorgialla;-inkscape-font-specification:'Vipnagorgialla, Normal';font-variant-ligatures:normal;font-variant-caps:normal;font-variant-numeric:normal;font-feature-settings:normal;text-align:center;writing-mode:lr-tb;text-anchor:middle;fill:#610000;fill-opacity:1;stroke:#b9c400;stroke-width:0.28030407px;stroke-opacity:1"
         id="path69" />
      <path
         inkscape:connector-curvature="0"
         d="m 18.564143,296.79697 h -2.403888 l -2.33213,-2.6072 v 2.6072 h -2.260373 v -5.92002 h 2.128817 l 2.595242,3.07363 v -3.06167 l 2.272332,-0.012 z"
         style="font-style:normal;font-variant:normal;font-weight:normal;font-stretch:normal;font-size:11.95964146px;font-family:Vipnagorgialla;-inkscape-font-specification:'Vipnagorgialla, Normal';font-variant-ligatures:normal;font-variant-caps:normal;font-variant-numeric:normal;font-feature-settings:normal;text-align:center;writing-mode:lr-tb;text-anchor:middle;fill:#610000;fill-opacity:1;stroke:#b9c400;stroke-width:0.28030407px;stroke-opacity:1"
         id="path71" />
      <path
         inkscape:connector-curvature="0"
         d="m 26.083018,296.79697 h -4.819735 q -0.705619,0 -1.112247,-0.0598 -0.633861,-0.0957 -0.896973,-0.40663 -0.263112,-0.31095 -0.263112,-0.94481 v -3.09755 q 0,-0.6219 0.263112,-0.93285 0.263112,-0.31095 0.896973,-0.41858 0.382709,-0.0598 1.112247,-0.0598 h 4.819735 v 1.50691 h -4.173914 q -0.34683,0 -0.454467,0.0478 -0.215273,0.0837 -0.215273,0.35879 v 2.1049 q 0,0.26311 0.215273,0.34683 0.119597,0.0478 0.454467,0.0478 h 1.913542 v -0.70561 h -1.913542 v -1.50692 h 4.173914 z"
         style="font-style:normal;font-variant:normal;font-weight:normal;font-stretch:normal;font-size:11.95964146px;font-family:Vipnagorgialla;-inkscape-font-specification:'Vipnagorgialla, Normal';font-variant-ligatures:normal;font-variant-caps:normal;font-variant-numeric:normal;font-feature-settings:normal;text-align:center;writing-mode:lr-tb;text-anchor:middle;fill:#610000;fill-opacity:1;stroke:#b9c400;stroke-width:0.28030407px;stroke-opacity:1"
         id="path73" />
      <path
         inkscape:connector-curvature="0"
         d="m 33.602084,295.38573 q 0,0.64582 -0.275072,0.95677 -0.275072,0.31095 -0.908933,0.40663 -0.370748,0.0478 -1.088327,0.0478 H 26.40238 v -1.50692 h 4.6523 q 0.298991,-0.012 0.298991,-0.28703 0,-0.26311 -0.03588,-0.32291 -0.04784,-0.10763 -0.275071,-0.10763 h -2.463686 q -0.777377,0 -1.375359,-0.2392 -0.801296,-0.32291 -0.801296,-0.99265 v -1.0644 q 0,-0.65778 0.263112,-0.95678 0.275072,-0.31095 0.920892,-0.40662 0.442507,-0.0598 1.088328,-0.0598 h 4.161955 v 1.51887 h -3.886884 q -0.287031,0 -0.287031,0.27507 0,0.35879 0.131556,0.41859 0.03588,0.012 0.526224,0.012 h 2.34409 q 0.777377,0 1.303601,0.31095 0.633861,0.37075 0.633861,1.10029 z"
         style="font-style:normal;font-variant:normal;font-weight:normal;font-stretch:normal;font-size:11.95964146px;font-family:Vipnagorgialla;-inkscape-font-specification:'Vipnagorgialla, Normal';font-variant-ligatures:normal;font-variant-caps:normal;font-variant-numeric:normal;font-feature-settings:normal;text-align:center;writing-mode:lr-tb;text-anchor:middle;fill:#610000;fill-opacity:1;stroke:#b9c400;stroke-width:0.28030407px;stroke-opacity:1"
         id="path75" />
    </g>
  </g>
</svg>
