<?xml version="1.0" encoding="UTF-8" standalone="no"?>
<svg
   xmlns:dc="http://purl.org/dc/elements/1.1/"
   xmlns:cc="http://creativecommons.org/ns#"
   xmlns:rdf="http://www.w3.org/1999/02/22-rdf-syntax-ns#"
   xmlns:svg="http://www.w3.org/2000/svg"
   xmlns="http://www.w3.org/2000/svg"
   xmlns:sodipodi="http://sodipodi.sourceforge.net/DTD/sodipodi-0.dtd"
   xmlns:inkscape="http://www.inkscape.org/namespaces/inkscape"
   width="144"
   height="24"
   viewBox="0 0 38.099999 6.3500002"
   version="1.1"
   id="svg8"
   inkscape:version="1.0.2 (e86c870879, 2021-01-15)"
   sodipodi:docname="Score.svg"
   inkscape:export-filename="/home/stuart/tmp/Score.png"
   inkscape:export-xdpi="96"
   inkscape:export-ydpi="96">
  <title
     id="title55">Score</title>
  <defs
     id="defs2" />
  <sodipodi:namedview
     id="base"
     pagecolor="#ffffff"
     bordercolor="#666666"
     borderopacity="1.0"
     inkscape:pageopacity="0.0"
     inkscape:pageshadow="2"
     inkscape:zoom="12.090829"
     inkscape:cx="71.874438"
     inkscape:cy="12.007392"
     inkscape:document-units="px"
     inkscape:current-layer="layer1"
     showgrid="false"
     units="px"
     inkscape:window-width="1920"
     inkscape:window-height="997"
     inkscape:window-x="0"
     inkscape:window-y="28"
     inkscape:window-maximized="1"
     showguides="false"
     inkscape:document-rotation="0" />
  <metadata
     id="metadata5">
    <rdf:RDF>
      <cc:Work
         rdf:about="">
        <dc:format>image/svg+xml</dc:format>
        <dc:type
           rdf:resource="http://purl.org/dc/dcmitype/StillImage" />
        <dc:title>Score</dc:title>
        <dc:creator>
          <cc:Agent>
            <dc:title>Stuart &quot;Sslaxx&quot; Moore</dc:title>
          </cc:Agent>
        </dc:creator>
      </cc:Work>
    </rdf:RDF>
  </metadata>
  <g
     inkscape:label="Layer 1"
     inkscape:groupmode="layer"
     id="layer1"
     transform="translate(0,-290.64999)">
    <g
       aria-label="SCORE"
       style="font-style:normal;font-variant:normal;font-weight:normal;font-stretch:normal;font-size:11.65271854px;line-height:125%;font-family:Vipnagorgialla;-inkscape-font-specification:'Vipnagorgialla, Normal';font-variant-ligatures:normal;font-variant-caps:normal;font-variant-numeric:normal;font-feature-settings:normal;text-align:center;letter-spacing:0px;word-spacing:0px;writing-mode:lr-tb;text-anchor:middle;fill:#b9c400;fill-opacity:1;stroke:#610100;stroke-width:0.27311334px;stroke-linecap:butt;stroke-linejoin:miter;stroke-opacity:1"
       id="text12">
      <path
         d="m 7.3268196,295.34566 q 0,0.62924 -0.2680125,0.93221 -0.2680125,0.30297 -0.8856066,0.3962 -0.3612343,0.0466 -1.0603974,0.0466 H 0.31188305 v -1.46824 H 4.8447906 q 0.2913179,-0.0117 0.2913179,-0.27967 0,-0.25636 -0.034958,-0.31462 -0.046611,-0.10488 -0.2680126,-0.10488 h -2.40046 q -0.7574267,0 -1.3400626,-0.23305 -0.78073215,-0.31463 -0.78073215,-0.96718 v -1.03709 q 0,-0.6409 0.25635981,-0.93222 0.26801252,-0.30297 0.89725934,-0.39619 0.4311506,-0.0583 1.0603974,-0.0583 h 4.055146 v 1.47989 H 2.7939121 q -0.2796652,0 -0.2796652,0.26801 0,0.34959 0.1281799,0.40785 0.034958,0.0116 0.5127196,0.0116 h 2.2839328 q 0.7574267,0 1.2701463,0.30297 0.6175941,0.36124 0.6175941,1.07205 z"
         style="stroke-width:0.27311334px"
         id="path56" />
      <path
         d="m 14.872319,296.72068 h -4.859183 q -0.6875108,0 -1.0837033,-0.0583 -0.6059413,-0.0932 -0.8739538,-0.39619 -0.2563598,-0.30297 -0.2563598,-0.92056 v -3.01806 q 0,-0.61759 0.2563598,-0.92056 0.2680125,-0.30297 0.8739538,-0.39619 0.3961925,-0.0583 1.0837033,-0.0583 h 4.859183 v 1.46824 h -4.229937 q -0.629246,0 -0.629246,0.38454 v 2.06254 q 0,0.38454 0.629246,0.38454 h 4.229937 z"
         style="stroke-width:0.27311334px"
         id="path58" />
      <path
         d="m 22.550368,295.34566 q 0,0.62924 -0.279666,0.93221 -0.268012,0.30297 -0.885606,0.3962 -0.361234,0.0466 -1.048745,0.0466 h -2.924832 q -0.675858,0 -0.978829,-0.035 -0.652552,-0.0932 -0.94387,-0.39619 -0.279665,-0.30297 -0.279665,-0.94387 v -3.01806 q 0,-0.65255 0.279665,-0.94387 0.279665,-0.29132 0.94387,-0.38454 0.38454,-0.0466 0.978829,-0.0466 h 2.924832 q 0.687511,0 1.048745,0.0466 0.617594,0.0932 0.885606,0.3962 0.279666,0.30297 0.279666,0.93221 z m -2.190711,-0.47776 v -2.06254 q 0,-0.25636 -0.209749,-0.33792 -0.12818,-0.0466 -0.431151,-0.0466 h -1.666339 q -0.291318,0 -0.43115,0.0466 -0.209749,0.0816 -0.209749,0.33792 v 2.06254 q 0,0.25636 0.209749,0.33792 0.116527,0.0466 0.43115,0.0466 h 1.666339 q 0.302971,0 0.431151,-0.0466 0.209749,-0.0816 0.209749,-0.33792 z"
         style="stroke-width:0.27311334px"
         id="path60" />
      <path
         d="m 30.16378,296.72068 h -2.190711 v -1.4799 q 0,-0.39619 -0.6409,-0.39619 h -1.876087 v 1.87609 h -2.202364 v -5.7681 h 4.696046 q 0.722468,0 1.130313,0.0699 0.594289,0.10487 0.838996,0.40784 0.244707,0.30297 0.244707,0.89726 v 1.14197 q 0,0.4195 -0.442803,0.65255 0.442803,0.17479 0.442803,0.62925 z m -2.190711,-4.00854 q 0,-0.25636 -0.198096,-0.29132 h -2.318891 v 0.95553 h 1.876087 q 0.51272,0 0.570984,-0.0699 0.06992,-0.0699 0.06992,-0.59429 z"
         style="stroke-width:0.27311334px"
         id="path62" />
      <path
         d="m 37.788118,290.95258 v 1.46824 H 33.08042 v 0.67586 h 2.132447 v 1.46824 H 33.08042 v 0.68752 h 4.707698 v 1.46824 h -6.921715 v -5.7681 z"
         style="stroke-width:0.27311334px"
         id="path64" />
    </g>
  </g>
</svg>
