<?xml version="1.0" encoding="UTF-8" standalone="no"?>
<svg
   xmlns:dc="http://purl.org/dc/elements/1.1/"
   xmlns:cc="http://creativecommons.org/ns#"
   xmlns:rdf="http://www.w3.org/1999/02/22-rdf-syntax-ns#"
   xmlns:svg="http://www.w3.org/2000/svg"
   xmlns="http://www.w3.org/2000/svg"
   xmlns:sodipodi="http://sodipodi.sourceforge.net/DTD/sodipodi-0.dtd"
   xmlns:inkscape="http://www.inkscape.org/namespaces/inkscape"
   version="1.1"
   id="svg2"
   width="48"
   height="48"
   viewBox="0 0 48 48"
   sodipodi:docname="Lives_Icon.svg"
   inkscape:version="1.0.2 (e86c870879, 2021-01-15)"
   inkscape:export-filename="/home/stuart/tmp/Lives_Icon.png"
   inkscape:export-xdpi="96"
   inkscape:export-ydpi="96">
  <title
     id="title11">Sonic Head</title>
  <metadata
     id="metadata8">
    <rdf:RDF>
      <cc:Work
         rdf:about="">
        <dc:format>image/svg+xml</dc:format>
        <dc:type
           rdf:resource="http://purl.org/dc/dcmitype/StillImage" />
        <dc:title>Sonic Head</dc:title>
        <dc:creator>
          <cc:Agent>
            <dc:title>SEGA</dc:title>
          </cc:Agent>
        </dc:creator>
        <dc:rights>
          <cc:Agent>
            <dc:title>SEGA</dc:title>
          </cc:Agent>
        </dc:rights>
      </cc:Work>
    </rdf:RDF>
  </metadata>
  <defs
     id="defs6" />
  <sodipodi:namedview
     pagecolor="#ffffff"
     bordercolor="#666666"
     borderopacity="1"
     objecttolerance="10"
     gridtolerance="10"
     guidetolerance="10"
     inkscape:pageopacity="0"
     inkscape:pageshadow="2"
     inkscape:window-width="1920"
     inkscape:window-height="997"
     id="namedview4"
     showgrid="false"
     borderlayer="true"
     inkscape:zoom="17.135132"
     inkscape:cx="24.139045"
     inkscape:cy="24.165221"
     inkscape:window-x="0"
     inkscape:window-y="28"
     inkscape:window-maximized="1"
     inkscape:current-layer="svg2"
     inkscape:document-rotation="0" />
  <g
     transform="matrix(2.9999535,0,0,2.9999535,8.1657934e-4,7.4699964e-4)"
     id="g835">
    <path
       id="path28"
       d="M 9.7128906,1.6484375 C 9.1659494,1.6444663 8.6153764,1.6769569 8.2226562,1.7480469 7.6188863,1.8573369 6.6583537,2.1274681 6.1523438,2.3300781 5.2884138,2.6760181 4.1779144,3.3955025 3.2714844,4.1953125 L 2.7421875,4.6621094 2.1914062,4.5351562 C 1.5263363,4.3813863 0.60557125,4.3198563 0.33203125,4.4101562 0.04322125,4.5054662 -0.02284063,4.645545 0.00585938,5.109375 0.03406937,5.565315 0.19769375,6.0759636 0.55859375,6.8398438 L 0.80664062,7.3671875 0.73242188,7.5976562 C 0.50516187,8.3036363 0.50338562,9.4385253 0.72851562,10.134766 0.86729563,10.563946 1.1120736,11.0869 1.3085938,11.375 c 0.05695,0.08351 0.1033256,0.164387 0.1035156,0.179688 1.8e-4,0.0153 -0.078281,0.0565 -0.1757813,0.0918 -0.47197992,0.17067 -0.61513123,0.499222 -0.33203122,0.763672 0.17839992,0.16665 0.63924872,0.306641 1.01171872,0.306641 0.25848,0 0.2805069,0.01153 0.5917969,0.302734 0.83388,0.78006 1.6636469,1.207988 2.5292969,1.304688 0.48873,0.05465 1.2917587,0.02475 1.7617187,-0.06445 0.4733,-0.08978 0.8624775,-0.206655 1.6171875,-0.484375 0.94079,-0.34618 1.6287214,-0.457372 2.7949224,-0.457032 1.271779,3.6e-4 2.770642,0.29641 3.632812,0.71875 0.16014,0.07844 0.292922,0.138813 0.294922,0.132813 0.06125,-0.15938 -0.01133,-0.678971 -0.16211,-1.150391 -0.133849,-0.41851 -0.476196,-1.06967 -0.753906,-1.4375 -0.34818,-0.46116 -1.026927,-0.918083 -1.810547,-1.220703 l -0.367187,-0.142578 0.240234,-0.175781 c 0.37318,-0.2709003 1.113531,-0.6036527 1.613282,-0.7265628 0.369059,-0.09076 0.606185,-0.1122343 1.291015,-0.1152343 0.96317,-0.00451 0.903774,0.043379 0.652344,-0.5195313 -0.44155,-0.98852 -1.322799,-1.918152 -2.261719,-2.3886718 -0.43873,-0.2198701 -1.114474,-0.4068126 -1.615234,-0.4453126 -0.28432,-0.0218 -0.425782,-0.053903 -0.425782,-0.095703 0,-0.11585 0.662913,-0.7765694 1.007813,-1.0058593 0.18841,-0.12525 0.519518,-0.2999188 0.736328,-0.3867188 0.3847,-0.15404 1.346769,-0.39825 1.599609,-0.40625 0.06962,-0.0022 0.170863,-0.022022 0.226563,-0.044922 0.09106,-0.03747 0.06497,-0.077338 -0.259766,-0.3984375 -0.36343,-0.35938 -0.971255,-0.788775 -1.484375,-1.046875 -0.41038,-0.20642 -1.52088,-0.5598193 -2.18164,-0.6933594 C 10.804109,1.6928262 10.259832,1.6524087 9.7128906,1.6484375 Z M 5.9179688,6.0527344 c 0.1429317,-0.00604 0.2813787,0.00944 0.4101562,0.046875 0.62151,0.18067 1.082765,0.8626837 1.265625,1.8710937 0.08344,0.46034 0.070062,1.6608158 -0.023437,2.1347659 -0.16593,0.84091 -0.5690887,1.407495 -1.2304687,1.734375 -0.3437301,0.16991 -0.4136551,0.186272 -0.890625,0.201172 -0.2847201,0.0085 -0.5404594,0.007 -0.5683594,-0.0039 -0.28423,-0.11115 -1.3044856,-0.341656 -1.5410156,-0.347656 -0.29736,-0.0082 -0.3010251,-0.0113 -0.265625,-0.136719 0.06277,-0.22238 0.024953,-0.975324 -0.060547,-1.208984 -0.0446,-0.12186 -0.082031,-0.231787 -0.082031,-0.242188 0,-0.01 0.077775,-0.01758 0.171875,-0.01758 0.09406,0 0.19235,-0.02965 0.21875,-0.06445 0.02648,-0.03481 0.076028,-0.275136 0.1113282,-0.535156 0.18413,-1.3557 0.5639312,-2.2527956 1.2070312,-2.8535156 0.37827,-0.353325 0.8485486,-0.5600008 1.2773438,-0.578125 z M 1.5722656,7.5625 c 0.19091,-0.02314 0.2770294,0.1167756 0.4433594,0.7285156 0.08392,0.30861 0.1988594,0.6795888 0.2558594,0.8242188 0.1237,0.31387 0.1237969,0.3105469 0.029297,0.3105468 -0.1453799,2e-7 -0.2392812,0.2346404 -0.2382812,0.5937498 0.00175,0.54131 0.1535756,1.065034 0.4160156,1.433594 0.0793,0.11138 0.087956,0.150391 0.035156,0.150391 -0.0391,0 -0.080197,-0.009 -0.091797,-0.01953 -0.01161,-0.0105 -0.1567356,-0.03328 -0.3222656,-0.05078 -0.16554,-0.0175 -0.3210031,-0.061 -0.3457032,-0.0957 C 1.7292362,11.40282 1.6204988,11.188941 1.5117188,10.962891 1.2673487,10.455091 1.1638531,9.9843056 1.1269531,9.1972656 1.0823631,8.2453156 1.2581256,7.6006 1.5722656,7.5625 Z"
       style="fill:#0e3293;fill-opacity:1;stroke:none;stroke-width:0.05;stroke-miterlimit:4;stroke-dasharray:none;stroke-opacity:1"
       inkscape:connector-curvature="0" />
    <path
       id="path24"
       d="m 6.2886872,10.948704 c -0.31828,-0.19918 -0.51281,-0.77699 -0.55596,-1.6514099 -0.0396,-0.80173 0.0424,-0.984 0.47309,-1.05183 0.45754,-0.0721 0.78106,0.56074 0.85675,1.67581 0.0512,0.7544099 -0.0658,1.0474699 -0.44051,1.1035599 -0.11811,0.0177 -0.22101,-0.006 -0.33337,-0.0761 z"
       style="fill:#0e3293;fill-opacity:1;stroke:#ffffff;stroke-width:0.0506362;stroke-opacity:1"
       inkscape:connector-curvature="0" />
    <path
       inkscape:connector-curvature="0"
       id="path814"
       d="m 4.8306189,12.035394 c -0.41412,-0.134084 -1.2070106,-0.304275 -1.5294166,-0.328283 -0.1194667,-0.0089 -0.2265911,-0.02555 -0.2380542,-0.03702 -0.014434,-0.01443 -0.01297,-0.07145 0.00476,-0.185422 0.049786,-0.320041 -0.00356,-0.970429 -0.1005296,-1.225548 -0.066791,-0.175729 -0.05491,-0.195227 0.1189612,-0.195227 0.052547,0 0.123936,-0.0099 0.1586419,-0.022 0.079791,-0.02781 0.1020138,-0.1007664 0.173334,-0.5689958 C 3.6366844,8.0392768 3.9960431,7.2030956 4.650316,6.6062003 5.0788911,6.2152098 5.5955827,6.0102648 6.0686559,6.043618 c 0.2062276,0.01454 0.3168823,0.046361 0.5050448,0.1452378 0.2395827,0.1258971 0.4729884,0.3674731 0.656687,0.6796743 0.1869387,0.3177075 0.3609041,0.879055 0.4030828,1.3006586 0.027668,0.2765578 0.028097,1.2271742 6.972e-4,1.5441204 C 7.5595499,10.576447 7.2488385,11.220923 6.7124701,11.625089 6.5400692,11.754997 6.1778,11.946795 6.0126039,11.995622 c -0.2233452,0.06602 -1.0183177,0.09277 -1.1819856,0.03977 z M 6.7652838,10.96756 c 0.1064414,-0.04835 0.1956465,-0.158852 0.2418821,-0.299645 0.031291,-0.09529 0.03697,-0.174995 0.035897,-0.503849 C 7.0398871,9.1910305 6.7950448,8.44463 6.4289464,8.2919349 6.3345508,8.2525637 6.2087414,8.2523772 6.0772916,8.291414 5.786801,8.3776803 5.714541,8.6027675 5.7526664,9.3026088 5.8131046,10.412027 6.095986,11.006733 6.562455,11.00504 6.63681,11.00477 6.7152842,10.99027 6.7652838,10.96756 Z"
       style="opacity:1;fill:#ffffff;fill-opacity:1;fill-rule:nonzero;stroke:#ffffff;stroke-width:0.060101;stroke-linecap:round;stroke-linejoin:miter;stroke-miterlimit:4;stroke-dasharray:none;stroke-dashoffset:0;stroke-opacity:1" />
    <path
       inkscape:connector-curvature="0"
       id="path816"
       d="M 2.3664792,11.59531 C 2.3058774,11.581131 2.1639039,11.555548 2.0509826,11.538458 1.9380612,11.521368 1.8205092,11.494373 1.7897559,11.47847 1.7458712,11.455776 1.6966326,11.372688 1.5609046,11.09229 1.2381288,10.425475 1.1420815,10.000368 1.1112894,9.1022826 1.0805592,8.2060065 1.253567,7.6049235 1.5587481,7.5476712 c 0.1079579,-0.020253 0.2026492,0.03645 0.2709872,0.1622724 0.057536,0.1059347 0.105441,0.2500378 0.2844726,0.855729 0.060951,0.2062067 0.1481131,0.4744219 0.1936935,0.5960337 0.04558,0.1216119 0.07769,0.2346205 0.071354,0.2511305 -0.00662,0.017257 -0.036578,0.030018 -0.070468,0.030018 -0.070357,0 -0.1492186,0.083684 -0.1846581,0.1959502 -0.034462,0.1091687 -0.045952,0.56251 -0.019068,0.752343 0.054021,0.381456 0.169256,0.707576 0.3525025,0.997594 0.060088,0.0951 0.1092516,0.182033 0.1092516,0.193185 0,0.01985 -0.050252,0.04726 -0.076765,0.04188 -0.00736,-0.0015 -0.06297,-0.01432 -0.1235719,-0.0285 z"
       style="opacity:1;fill:#ffffff;fill-opacity:1;fill-rule:nonzero;stroke:#ffffff;stroke-width:0.060101;stroke-linecap:round;stroke-linejoin:miter;stroke-miterlimit:4;stroke-dasharray:none;stroke-dashoffset:0;stroke-opacity:1" />
  </g>
</svg>
